<svg xmlns="http://www.w3.org/2000/svg" xml:space="preserve" style="fill-rule:evenodd;clip-rule:evenodd;stroke-linejoin:round;stroke-miterlimit:2" viewBox="0 0 2226 1923"><path d="M1365.5 404.7H859.8c-55.9 0-101.2-45.3-101.2-101.2 0-55.8 45.3-101.1 101.2-101.1h505.7c55.9 0 101.2 45.3 101.2 101.1 0 55.9-45.3 101.2-101.2 101.2ZM0 0v1770.2c0 83.4 68.3 151.7 151.7 151.7h1921.9c83.4 0 151.7-68.3 151.7-151.7V0H0Z" style="fill:#eee;fill-rule:nonzero"/><path d="M2020.63 1174.62c-41.73-100.41-126.38-208.833-192.67-243.106a997.249 997.249 0 0 1 97.26 291.436l.18 1.61c-108.59-270.619-292.67-379.906-443.1-617.563-7.61-12.019-15.21-24.063-22.62-36.776-4.24-7.261-7.64-13.803-10.59-19.825a174.148 174.148 0 0 1-14.32-38.04c0-1.252-.94-2.322-2.18-2.478a3.203 3.203 0 0 0-1.81 0c-.12 0-.32.223-.47.272-.15.05-.47.273-.69.372l.37-.644c-241.25 141.255-323.16 402.702-330.59 533.552a480.696 480.696 0 0 0-264.421 101.88 279.69 279.69 0 0 0-24.782-18.79 445.269 445.269 0 0 1-2.701-234.756 711.349 711.349 0 0 0-231.189 178.676h-.446c-38.064-48.25-35.388-207.349-33.207-240.581a172.832 172.832 0 0 0-32.068 17.025 699.794 699.794 0 0 0-93.873 80.417 836.732 836.732 0 0 0-89.784 107.729v.15-.18c-61.731 87.53-105.545 186.41-128.865 290.94l-1.288 6.34c-1.809 8.45-8.327 50.78-9.442 59.97 0 .72-.149 1.39-.223 2.11a917.73 917.73 0 0 0-15.588 132.41v4.96c.248 138.62 30.491 270.74 84.527 390.16 571.754 0 1122.88.11 1752.74.11 32.13-71.51 55.82-147.85 69.69-227.85 1.61-12.4 2.92-24.66 4.36-37.18a988.18 988.18 0 0 0-62.3-482.5l.09.15Zm-95.21 50.21v-.92l.18 1.02-.18-.1Z" style="fill:url(#a);fill-rule:nonzero"/><path d="M256.296 1922.01c43.593 0 32.284.02 75.695.02-75.752-108.58-128.886-233.19-151.621-367.55-13.506-69.07 0-104.09 6.79-160.22a715.861 715.861 0 0 0-15.439 132.53v4.96c.248 138.66 30.509 270.81 84.575 390.26Z" style="fill:url(#b);fill-rule:nonzero"/><path d="M2020.63 1174.62c-41.73-100.41-126.38-208.833-192.67-243.106a997.249 997.249 0 0 1 97.26 291.436v.91l.18 1.02c74.02 211.78 63.29 444.21-29.89 648.29-7.86 16.87-15.47 31.99-24.93 48.83 51.61 0 59.07-.07 138.36-.07 32.18-71.58 55.84-147.67 69.73-227.76 1.61-12.39 2.93-24.66 4.36-37.17a987.946 987.946 0 0 0-62.3-482.5l-.1.12Z" style="fill:url(#c);fill-rule:nonzero"/><path d="M2020.63 1174.62c-41.73-100.41-126.38-208.833-192.67-243.106a997.249 997.249 0 0 1 97.26 291.436v.91l.18 1.02c74.02 211.78 63.29 444.21-29.89 648.29-7.42 15.91-16.2 32.78-25.03 48.66 49.03 0 69.08.2 138.41.2 32.42-71.88 55.82-147.38 69.78-227.86 1.61-12.39 2.93-24.66 4.36-37.17a987.946 987.946 0 0 0-62.3-482.5l-.1.12Z" style="fill:url(#d);fill-rule:nonzero"/><path d="M256.359 1922.15c34.407 0 20.338.33 75.947.33-75.92-108.68-129.17-233.46-151.936-368-13.506-69.07 0-104.09 6.79-160.22a715.861 715.861 0 0 0-15.439 132.53v4.96c.248 138.71 28.088 272.05 84.638 390.4Z" style="fill:url(#e);fill-rule:nonzero"/><path d="M1553.75 1287.38c2.08 1.46 4.01 2.92 5.97 4.39-24.14-42.78-54.15-81.96-89.21-116.35-298.62-298.624-78.24-647.303-41.09-665.146l.37-.545c-241.25 141.256-323.15 402.703-330.59 533.551 11.2-.77 22.3-1.71 33.75-1.71 174.02.35 335 94.37 420.8 245.76v.05Z" style="fill:url(#f);fill-rule:nonzero"/><path d="M1133.45 1347.1c-1.59 23.89-85.99 106.29-115.51 106.29-273.092 0-317.451 165.22-317.451 165.22 11.387 131.01 98.005 240.3 205.92 303.09 136.241 0 305.401-.08 434.251-.08 253.81-148.28 256.37-553.11-18.57-690.57a331.671 331.671 0 0 1 231.58 56.23c-85.79-151.39-246.77-245.41-420.79-245.76-11.4 0-22.55.94-33.75 1.71a480.79 480.79 0 0 0-264.424 101.88c14.646 12.39 31.176 28.94 65.994 63.26 65.176 64.21 232.33 130.73 232.7 138.53l.05.2Z" style="fill:url(#g);fill-rule:nonzero"/><path d="M1133.45 1347.1c-1.59 23.89-85.99 106.29-115.51 106.29-273.092 0-317.451 165.22-317.451 165.22 11.418 131.37 98.482 240.9 206.811 303.61 59.163-.4 366.09-.11 433.5-.68 253.67-148.36 256.17-553.06-18.71-690.49a331.671 331.671 0 0 1 231.58 56.23c-85.79-151.39-246.77-245.41-420.79-245.76-11.4 0-22.55.94-33.75 1.71a480.79 480.79 0 0 0-264.424 101.88c14.646 12.39 31.176 28.94 65.994 63.26 65.176 64.21 232.33 130.73 232.7 138.53l.05.2Z" style="fill:url(#h);fill-rule:nonzero"/><path d="M789.975 1113.41c7.782 4.96 14.2 9.27 19.826 13.16a445.282 445.282 0 0 1-2.702-234.757 711.337 711.337 0 0 0-231.188 178.677c4.684-.12 144.006-2.63 214.064 42.92Z" style="fill:url(#i);fill-rule:nonzero"/><path d="M180.197 1554.53c22.736 134.32 75.849 258.91 151.568 367.48 189.588-.39 400.477-.38 572.238.01-193.957-97.24-274.052-276.86-256.498-431.43-97.268 1.44-186.705-54.82-227.521-143.12 107.157-65.64 241.077-71.02 353.14-14.17 113.698 51.59 243.186 56.7 360.576 14.17-.37-7.8-167.527-74.34-232.703-138.53-34.818-34.32-51.347-50.85-65.993-63.26a279.69 279.69 0 0 0-24.782-18.79c-5.7-3.89-12.118-8.1-19.826-13.16-70.057-45.55-209.38-43.04-213.99-42.92h-.446c-38.064-48.25-35.388-207.347-33.207-240.579a172.832 172.832 0 0 0-32.068 17.025 699.787 699.787 0 0 0-93.873 80.416 837.582 837.582 0 0 0-90.155 107.478c-61.732 87.53-105.546 186.38-128.865 290.91-.471 1.96-34.596 151.15-17.769 228.52l.174-.05Z" style="fill:url(#j);fill-rule:nonzero"/><path d="M1494.89 1921.57c236.81 0 205.02-.31 375.6.23a753.33 753.33 0 0 0 24.85-48.58c93.18-204.08 103.91-436.51 29.88-648.29v-.92c0-.72-.14-1.14 0-.92l.18 1.62c34.07 222.46-79.08 437.89-256 583.85l-.54 1.24c-58.83 47.92-118.6 81.75-173.97 111.77Z" style="fill:url(#k);fill-rule:nonzero"/><path d="M1470.48 1175.37a522.611 522.611 0 0 1 89.21 116.47c5.28 3.99 10.21 7.95 14.4 11.8 217.76 200.73 103.66 484.48 95.16 504.55 176.9-145.74 289.95-361.32 256-583.86-108.64-270.86-292.92-380.147-443.1-617.804-7.61-12.019-15.21-24.063-22.62-36.776-4.24-7.261-7.64-13.803-10.58-19.825a173.574 173.574 0 0 1-14.33-38.04c0-1.252-.94-2.322-2.18-2.478a3.203 3.203 0 0 0-1.81 0c-.12 0-.32.223-.47.272-.15.05-.47.273-.69.372-37.15 17.62-257.48 366.521 41.13 664.889l-.12.43Z" style="fill:url(#l);fill-rule:nonzero"/><path d="M1574.07 1303.73c-4.19-3.84-9.12-7.8-14.4-11.79-1.96-1.46-3.89-2.93-5.97-4.39-67.53-46.79-150.11-66.83-231.59-56.23 274.69 137.35 272.37 541.53 19.19 690.14 31.62.02 114.37.06 152.54.37 56.99-27.41 115.68-64.03 174.8-112.2l.54-1.24c8.6-20.07 122.69-303.82-95.16-504.56l.05-.1Z" style="fill:url(#m);fill-rule:nonzero"/><path d="M700.513 1618.46s44.335-165.22 317.457-165.22c29.51 0 113.99-82.4 115.5-106.29-117.39 42.53-246.871 37.42-360.569-14.17-112.063-56.85-245.984-51.47-353.14 14.17 40.816 88.3 130.253 144.56 227.521 143.12-17.535 154.77 62.843 334.71 257.503 431.93 1.65-.04 1.091-.03 2.255-.03-108.276-62.84-195.117-172.25-206.527-303.43v-.08Z" style="fill:url(#n);fill-rule:nonzero"/><path d="M2020.63 1174.62c-41.73-100.41-126.38-208.833-192.67-243.106a997.249 997.249 0 0 1 97.26 291.436l.18 1.61c-108.59-270.619-292.67-379.906-443.1-617.563-7.61-12.019-15.21-24.063-22.62-36.776-4.24-7.261-7.64-13.803-10.59-19.825a174.148 174.148 0 0 1-14.32-38.04c0-1.252-.94-2.322-2.18-2.478a3.203 3.203 0 0 0-1.81 0c-.12 0-.32.223-.47.272-.15.05-.47.273-.69.372l.37-.644c-241.25 141.255-323.16 402.702-330.59 533.552 11.2-.77 22.3-1.71 33.75-1.71 174.02.34 335 94.37 420.8 245.76-67.53-46.79-150.11-66.84-231.59-56.23 274.85 137.42 272.36 541.98 18.76 690.39-71.61.13-331-.25-434.636.13-108.497-61.9-194.342-172.13-205.723-302.96 0 0 44.335-165.22 317.449-165.22 29.52 0 114-82.4 115.51-106.29-.37-7.81-167.522-74.34-232.698-138.53-34.818-34.32-51.348-50.85-65.994-63.27a282.103 282.103 0 0 0-24.781-18.78 445.286 445.286 0 0 1-2.702-234.758 711.316 711.316 0 0 0-231.188 178.678h-.446c-38.065-48.25-35.388-207.35-33.208-240.583a172.824 172.824 0 0 0-32.067 17.025 699.794 699.794 0 0 0-93.873 80.417 837.19 837.19 0 0 0-89.784 107.721c-61.731 87.53-105.546 186.39-128.865 290.92l-1.289 6.34c-1.809 8.45-9.912 51.37-11.077 60.59a1118.478 1118.478 0 0 0-14.175 133.9v4.95c.248 138.81 30.575 271.11 84.754 390.66 382.483-.96 1442.053-1.4 1752.483-.33 32.14-71.53 55.83-147.88 69.71-227.91 1.62-12.39 2.93-24.65 4.37-37.17a988.068 988.068 0 0 0-62.31-482.5l.05-.05Z" style="fill:url(#o);fill-rule:nonzero"/><path d="M0 0v961h2225.3V0H0Zm1365.5 404.7H859.8c-55.9 0-101.2-45.3-101.2-101.2 0-55.8 45.3-101.1 101.2-101.1h505.8c55.9 0 101.2 45.3 101.2 101.1-.1 55.9-45.4 101.2-101.3 101.2Z" style="fill:#212121;fill-opacity:.05;fill-rule:nonzero"/><path d="M0 948.3h2225.3V961H0z" style="fill:#212121;fill-opacity:.02;fill-rule:nonzero"/><path d="M0 961h2225.3v12.7H0z" style="fill:#fff;fill-opacity:.05;fill-rule:nonzero"/><path d="M0 0v12.7h2225.3V0H0Zm1365.5 404.7H859.8c-53.7 0-97.6-42-100.8-94.8-.3 2.1-.4 4.2-.4 6.3 0 55.9 45.3 101.1 101.2 101.1h505.7c55.9 0 101.2-45.2 101.2-101.1 0-2.1-.1-4.2-.4-6.3-3.2 52.7-47 94.8-100.8 94.8Z" style="fill:#212121;fill-opacity:.02;fill-rule:nonzero"/><path d="M2073.6 1909.2H151.7C68.3 1909.2 0 1841 0 1757.5v12.7c0 83.4 68.3 151.7 151.7 151.7h1921.9c83.4 0 151.7-68.3 151.7-151.7v-12.7c0 83.5-68.3 151.7-151.7 151.7ZM859.8 202.3h505.7c53.7 0 97.6 42 100.8 94.8.1-2.1.4-4.2.4-6.3 0-55.9-45.3-101.2-101.2-101.2H859.8c-55.9 0-101.2 45.3-101.2 101.2 0 2.1.1 4.2.4 6.3 3.2-52.8 47-94.8 100.8-94.8Z" style="fill:#231f20;fill-opacity:.1;fill-rule:nonzero"/><defs><radialGradient id="b" cx="0" cy="0" r="1" gradientTransform="matrix(2002.57 0 0 2544.87 1831.77 256.68)" gradientUnits="userSpaceOnUse"><stop offset="0" style="stop-color:#ffbd4f;stop-opacity:1"/><stop offset=".13" style="stop-color:#ffbd4f;stop-opacity:1"/><stop offset=".19" style="stop-color:#ffac31;stop-opacity:1"/><stop offset=".25" style="stop-color:#ff9d17;stop-opacity:1"/><stop offset=".28" style="stop-color:#ff980e;stop-opacity:1"/><stop offset=".4" style="stop-color:#ff563b;stop-opacity:1"/><stop offset=".47" style="stop-color:#ff3750;stop-opacity:1"/><stop offset=".71" style="stop-color:#f5156c;stop-opacity:1"/><stop offset=".78" style="stop-color:#eb0878;stop-opacity:1"/><stop offset=".86" style="stop-color:#e50080;stop-opacity:1"/><stop offset="1" style="stop-color:#e50080;stop-opacity:1"/></radialGradient><radialGradient id="c" cx="0" cy="0" r="1" gradientTransform="matrix(2002.57 0 0 2544.87 1831.77 256.68)" gradientUnits="userSpaceOnUse"><stop offset="0" style="stop-color:#ffbd4f;stop-opacity:1"/><stop offset=".13" style="stop-color:#ffbd4f;stop-opacity:1"/><stop offset=".19" style="stop-color:#ffac31;stop-opacity:1"/><stop offset=".25" style="stop-color:#ff9d17;stop-opacity:1"/><stop offset=".28" style="stop-color:#ff980e;stop-opacity:1"/><stop offset=".4" style="stop-color:#ff563b;stop-opacity:1"/><stop offset=".47" style="stop-color:#ff3750;stop-opacity:1"/><stop offset=".71" style="stop-color:#f5156c;stop-opacity:1"/><stop offset=".78" style="stop-color:#eb0878;stop-opacity:1"/><stop offset=".86" style="stop-color:#e50080;stop-opacity:1"/><stop offset="1" style="stop-color:#e50080;stop-opacity:1"/></radialGradient><radialGradient id="d" cx="0" cy="0" r="1" gradientTransform="matrix(2002.57 0 0 2544.87 1088.24 1296.04)" gradientUnits="userSpaceOnUse"><stop offset="0" style="stop-color:#960e18;stop-opacity:1"/><stop offset=".3" style="stop-color:#960e18;stop-opacity:1"/><stop offset=".35" style="stop-color:#b11927;stop-opacity:.74"/><stop offset=".44" style="stop-color:#db293d;stop-opacity:.34"/><stop offset=".5" style="stop-color:#f5334b;stop-opacity:.09"/><stop offset=".53" style="stop-color:#ff3750;stop-opacity:0"/><stop offset="1" style="stop-color:#ff3750;stop-opacity:0"/></radialGradient><radialGradient id="e" cx="0" cy="0" r="1" gradientTransform="matrix(2002.57 0 0 2544.87 1088.24 1296.04)" gradientUnits="userSpaceOnUse"><stop offset="0" style="stop-color:#960e18;stop-opacity:1"/><stop offset=".3" style="stop-color:#960e18;stop-opacity:1"/><stop offset=".35" style="stop-color:#b11927;stop-opacity:.74"/><stop offset=".44" style="stop-color:#db293d;stop-opacity:.34"/><stop offset=".5" style="stop-color:#f5334b;stop-opacity:.09"/><stop offset=".53" style="stop-color:#ff3750;stop-opacity:0"/><stop offset="1" style="stop-color:#ff3750;stop-opacity:0"/></radialGradient><radialGradient id="f" cx="0" cy="0" r="1" gradientTransform="matrix(6043.11 0 0 3675.17 1158.78 -55.844)" gradientUnits="userSpaceOnUse"><stop offset="0" style="stop-color:#fff44f;stop-opacity:1"/><stop offset=".13" style="stop-color:#fff44f;stop-opacity:1"/><stop offset=".25" style="stop-color:#ffdc3e;stop-opacity:1"/><stop offset=".51" style="stop-color:#ff9d12;stop-opacity:1"/><stop offset="1" style="stop-color:#ff980e;stop-opacity:1"/></radialGradient><radialGradient id="g" cx="0" cy="0" r="1" gradientTransform="matrix(2143.92 0 0 2019.67 542.181 2690.17)" gradientUnits="userSpaceOnUse"><stop offset="0" style="stop-color:#3a8ee6;stop-opacity:1"/><stop offset=".35" style="stop-color:#3a8ee6;stop-opacity:1"/><stop offset=".47" style="stop-color:#5c79f0;stop-opacity:1"/><stop offset=".67" style="stop-color:#9059ff;stop-opacity:1"/><stop offset="1" style="stop-color:#c139e6;stop-opacity:1"/></radialGradient><radialGradient id="h" cx="0" cy="0" r="1" gradientTransform="matrix(1105.05 -251.69 279.325 1226.38 1261.57 1223.57)" gradientUnits="userSpaceOnUse"><stop offset="0" style="stop-color:#9059ff;stop-opacity:0"/><stop offset=".21" style="stop-color:#9059ff;stop-opacity:0"/><stop offset=".28" style="stop-color:#8c4ff3;stop-opacity:.06"/><stop offset=".75" style="stop-color:#7716a8;stop-opacity:.45"/><stop offset=".98" style="stop-color:#6e008b;stop-opacity:.6"/><stop offset="1" style="stop-color:#6e008b;stop-opacity:.6"/></radialGradient><radialGradient id="i" cx="0" cy="0" r="1" gradientTransform="matrix(5627.09 0 0 5789.93 4171.88 -1460.72)" gradientUnits="userSpaceOnUse"><stop offset="0" style="stop-color:#ffe226;stop-opacity:1"/><stop offset=".12" style="stop-color:#ffdb27;stop-opacity:1"/><stop offset=".29" style="stop-color:#ffc82a;stop-opacity:1"/><stop offset=".5" style="stop-color:#ffa930;stop-opacity:1"/><stop offset=".73" style="stop-color:#ff7e37;stop-opacity:1"/><stop offset=".79" style="stop-color:#ff7139;stop-opacity:1"/><stop offset="1" style="stop-color:#ff7139;stop-opacity:1"/></radialGradient><radialGradient id="j" cx="0" cy="0" r="1" gradientTransform="matrix(3122.18 0 0 3841.12 1700.65 -301.652)" gradientUnits="userSpaceOnUse"><stop offset="0" style="stop-color:#fff44f;stop-opacity:1"/><stop offset=".11" style="stop-color:#fff44f;stop-opacity:1"/><stop offset=".46" style="stop-color:#ff980e;stop-opacity:1"/><stop offset=".62" style="stop-color:#ff5634;stop-opacity:1"/><stop offset=".72" style="stop-color:#ff3647;stop-opacity:1"/><stop offset=".9" style="stop-color:#e31587;stop-opacity:1"/><stop offset="1" style="stop-color:#e31587;stop-opacity:1"/></radialGradient><radialGradient id="k" cx="0" cy="0" r="1" gradientTransform="matrix(3122.18 0 0 3841.12 1700.65 -301.652)" gradientUnits="userSpaceOnUse"><stop offset="0" style="stop-color:#fff44f;stop-opacity:1"/><stop offset=".11" style="stop-color:#fff44f;stop-opacity:1"/><stop offset=".46" style="stop-color:#ff980e;stop-opacity:1"/><stop offset=".62" style="stop-color:#ff5634;stop-opacity:1"/><stop offset=".72" style="stop-color:#ff3647;stop-opacity:1"/><stop offset=".9" style="stop-color:#e31587;stop-opacity:1"/><stop offset="1" style="stop-color:#e31587;stop-opacity:1"/></radialGradient><radialGradient id="l" cx="0" cy="0" r="1" gradientTransform="matrix(702.297 3253.75 -4219.83 910.818 324.851 303.858)" gradientUnits="userSpaceOnUse"><stop offset="0" style="stop-color:#fff44f;stop-opacity:1"/><stop offset=".06" style="stop-color:#ffe847;stop-opacity:1"/><stop offset=".17" style="stop-color:#ffc830;stop-opacity:1"/><stop offset=".3" style="stop-color:#ff980e;stop-opacity:1"/><stop offset=".36" style="stop-color:#ff8b16;stop-opacity:1"/><stop offset=".46" style="stop-color:#ff672a;stop-opacity:1"/><stop offset=".57" style="stop-color:#ff3647;stop-opacity:1"/><stop offset=".74" style="stop-color:#e31587;stop-opacity:1"/><stop offset="1" style="stop-color:#e31587;stop-opacity:1"/></radialGradient><radialGradient id="m" cx="0" cy="0" r="1" gradientTransform="matrix(4494.33 0 0 4729.09 508.11 -325.057)" gradientUnits="userSpaceOnUse"><stop offset="0" style="stop-color:#fff44f;stop-opacity:1"/><stop offset=".14" style="stop-color:#fff44f;stop-opacity:1"/><stop offset=".48" style="stop-color:#ff980e;stop-opacity:1"/><stop offset=".59" style="stop-color:#ff5634;stop-opacity:1"/><stop offset=".66" style="stop-color:#ff3647;stop-opacity:1"/><stop offset=".9" style="stop-color:#e31587;stop-opacity:1"/><stop offset="1" style="stop-color:#e31587;stop-opacity:1"/></radialGradient><radialGradient id="n" cx="0" cy="0" r="1" gradientTransform="matrix(5375.58 0 0 6199.48 3168.03 -384.464)" gradientUnits="userSpaceOnUse"><stop offset="0" style="stop-color:#fff44f;stop-opacity:1"/><stop offset=".09" style="stop-color:#fff44f;stop-opacity:1"/><stop offset=".23" style="stop-color:#ffe141;stop-opacity:1"/><stop offset=".51" style="stop-color:#ffaf1e;stop-opacity:1"/><stop offset=".63" style="stop-color:#ff980e;stop-opacity:1"/><stop offset="1" style="stop-color:#ff980e;stop-opacity:1"/></radialGradient><linearGradient id="a" x1="0" x2="1" y1="0" y2="0" gradientTransform="rotate(136.032 782.07 790.392) scale(2216.18)" gradientUnits="userSpaceOnUse"><stop offset="0" style="stop-color:#fff44f;stop-opacity:1"/><stop offset=".05" style="stop-color:#fff44f;stop-opacity:1"/><stop offset=".11" style="stop-color:#ffe847;stop-opacity:1"/><stop offset=".23" style="stop-color:#ffc830;stop-opacity:1"/><stop offset=".37" style="stop-color:#ff980e;stop-opacity:1"/><stop offset=".4" style="stop-color:#ff8b16;stop-opacity:1"/><stop offset=".46" style="stop-color:#ff672a;stop-opacity:1"/><stop offset=".53" style="stop-color:#ff3647;stop-opacity:1"/><stop offset=".71" style="stop-color:#e31587;stop-opacity:1"/><stop offset="1" style="stop-color:#e31587;stop-opacity:1"/></linearGradient><linearGradient id="o" x1="0" x2="1" y1="0" y2="0" gradientTransform="rotate(134.995 769.619 792.452) scale(1918.63)" gradientUnits="userSpaceOnUse"><stop offset="0" style="stop-color:#fff44f;stop-opacity:.8"/><stop offset=".17" style="stop-color:#fff44f;stop-opacity:.8"/><stop offset=".27" style="stop-color:#fff44f;stop-opacity:.63"/><stop offset=".49" style="stop-color:#fff44f;stop-opacity:.22"/><stop offset=".6" style="stop-color:#fff44f;stop-opacity:0"/><stop offset="1" style="stop-color:#fff44f;stop-opacity:0"/></linearGradient></defs></svg>
