<svg xmlns="http://www.w3.org/2000/svg" viewBox="0 0 2225.3 1921.9" xml:space="preserve"><path fill="#EEE" d="M1365.5 404.7H859.8c-55.9 0-101.2-45.3-101.2-101.2 0-55.8 45.3-101.1 101.2-101.1h505.7c55.9 0 101.2 45.3 101.2 101.1 0 55.9-45.3 101.2-101.2 101.2zM0 0v1770.2c0 83.4 68.3 151.7 151.7 151.7h1921.9c83.4 0 151.7-68.3 151.7-151.7V0H0z"/><path fill="#DB4437" d="M1112.7 809.2c-339.2 0-637.3 175.7-808.3 441.1v671.5h468.5l339.8-588.6h856.1c-159.1-311-482.8-524-856.1-524z"/><path fill="#0F9D58" d="M304.1 1250.7c-96.4 149.8-152.4 328.1-152.4 519.5 0 51.6 4.1 102.3 12 151.7h531.8l-391.4-671.2z"/><path fill="#FFCD40" d="M2073.6 1770.2c0-157.3-37.8-305.8-104.8-436.9h-856.1l339.8 588.6h609.1c7.9-49.4 12-100.1 12-151.7z"/><path fill="#F1F1F1" d="M1112.7 1333.3c-241.3 0-436.8 195.6-436.8 436.9 0 53.4 9.6 104.5 27.1 151.7h94.8c-22.2-45.9-34.6-97.4-34.6-151.7 0-193.1 156.5-349.5 349.5-349.5s349.5 156.4 349.5 349.5c0 54.4-12.4 105.8-34.6 151.7h94.8c17.5-47.3 27.1-98.4 27.1-151.7 0-241.3-195.6-436.9-436.8-436.9z"/><path fill="#4285F4" d="M1112.7 1420.7c-193 0-349.5 156.4-349.5 349.5 0 54.4 12.4 105.8 34.6 151.7h629.8c22.2-45.9 34.6-97.4 34.6-151.7-.1-193.1-156.5-349.5-349.5-349.5z"/><path opacity=".05" fill="#212121" d="M0 0v961h2225.3V0H0zm1365.5 404.7H859.8c-55.9 0-101.2-45.3-101.2-101.2 0-55.8 45.3-101.1 101.2-101.1h505.8c55.9 0 101.2 45.3 101.2 101.1-.1 55.9-45.4 101.2-101.3 101.2z"/><path opacity=".02" fill="#212121" d="M0 948.3h2225.3V961H0z"/><path opacity=".05" fill="#FFF" d="M0 961h2225.3v12.7H0z"/><path opacity=".02" fill="#212121" d="M0 0v12.7h2225.3V0H0zm1365.5 404.7H859.8c-53.7 0-97.6-42-100.8-94.8-.3 2.1-.4 4.2-.4 6.3 0 55.9 45.3 101.1 101.2 101.1h505.7c55.9 0 101.2-45.2 101.2-101.1 0-2.1-.1-4.2-.4-6.3-3.2 52.7-47 94.8-100.8 94.8z"/><path opacity=".1" fill="#231F20" d="M2073.6 1909.2H151.7C68.3 1909.2 0 1841 0 1757.5v12.7c0 83.4 68.3 151.7 151.7 151.7h1921.9c83.4 0 151.7-68.3 151.7-151.7v-12.7c0 83.5-68.3 151.7-151.7 151.7zM859.8 202.3h505.7c53.7 0 97.6 42 100.8 94.8.1-2.1.4-4.2.4-6.3 0-55.9-45.3-101.2-101.2-101.2H859.8c-55.9 0-101.2 45.3-101.2 101.2 0 2.1.1 4.2.4 6.3 3.2-52.8 47-94.8 100.8-94.8z"/></svg>
